<svg data-v-423bf9ae="" xmlns="http://www.w3.org/2000/svg" viewBox="0 0 266.71828755912 60" class="font"><!----><!----><!----><g data-v-423bf9ae="" id="18ddf9e0-b665-403d-a901-e6073a5ea08e" fill="black" transform="matrix(5.808325309113267,0,0,5.808325309113267,0.0000023386040766126825,-17.2507265726625)"><path d="M3.81 10.42L2.02 10.42L1.36 13.30L0 13.30L2.38 2.98L3.43 2.98L5.84 13.30L4.47 13.30ZM2.32 9.10L3.50 9.10L2.91 6.57ZM6.12 13.30L6.12 2.98L8.11 2.98C8.99 2.98 9.63 3.25 10.04 3.77C10.44 4.23 10.64 4.94 10.64 5.88C10.64 6.82 10.44 7.52 10.04 8.01C10.02 8.04 9.98 8.08 9.93 8.13C9.98 8.19 10.02 8.23 10.04 8.27C10.44 8.76 10.64 9.46 10.64 10.40C10.64 11.34 10.44 12.05 10.04 12.52C9.62 13.03 8.97 13.30 8.11 13.30ZM7.43 4.30L7.43 7.48L8.11 7.48C8.40 7.48 8.62 7.43 8.75 7.36C8.88 7.29 8.97 7.24 9.02 7.17C9.21 6.93 9.31 6.51 9.31 5.88C9.31 5.15 9.18 4.76 8.97 4.54C8.75 4.33 8.44 4.30 8.11 4.30ZM7.43 8.79L7.43 11.98L8.11 11.98C8.44 11.98 8.75 11.96 8.97 11.73C9.18 11.52 9.31 11.13 9.31 10.40C9.31 9.66 9.17 9.25 8.96 9.03C8.74 8.82 8.44 8.79 8.11 8.79ZM11.38 2.97L12.70 2.97L12.70 10.54C12.70 11.26 12.85 11.62 13.06 11.79C13.27 11.97 13.51 11.97 13.69 11.97C13.87 11.97 14.11 11.97 14.32 11.79C14.53 11.62 14.69 11.26 14.69 10.54L14.69 2.97L16.00 2.97L16.00 10.54C16.00 11.40 15.82 12.05 15.44 12.52C15.16 12.89 14.63 13.29 13.69 13.29C12.75 13.29 12.22 12.89 11.94 12.52C11.56 12.05 11.38 11.40 11.38 10.54ZM21.36 2.97L22.68 2.97L22.68 10.54C22.68 11.26 22.83 11.62 23.04 11.79C23.25 11.97 23.49 11.97 23.67 11.97C23.86 11.97 24.09 11.97 24.30 11.79C24.51 11.62 24.67 11.26 24.67 10.54L24.67 2.97L25.98 2.97L25.98 10.54C25.98 11.40 25.80 12.05 25.42 12.52C25.14 12.89 24.61 13.29 23.67 13.29C22.74 13.29 22.20 12.89 21.92 12.52C21.55 12.05 21.36 11.40 21.36 10.54ZM27.03 13.30L27.03 2.98L29.02 2.98C29.90 2.98 30.55 3.25 30.95 3.77C31.36 4.23 31.56 4.94 31.56 5.88C31.56 6.82 31.36 7.52 30.95 8.01C30.94 8.04 30.90 8.08 30.84 8.13C30.90 8.19 30.94 8.23 30.95 8.27C31.36 8.76 31.56 9.46 31.56 10.40C31.56 11.34 31.36 12.05 30.95 12.52C30.53 13.03 29.89 13.30 29.02 13.30ZM28.35 4.30L28.35 7.48L29.02 7.48C29.32 7.48 29.54 7.43 29.67 7.36C29.79 7.29 29.89 7.24 29.93 7.17C30.13 6.93 30.23 6.51 30.23 5.88C30.23 5.15 30.10 4.76 29.89 4.54C29.67 4.33 29.36 4.30 29.02 4.30ZM28.35 8.79L28.35 11.98L29.02 11.98C29.36 11.98 29.67 11.96 29.89 11.73C30.10 11.52 30.23 11.13 30.23 10.40C30.23 9.66 30.09 9.25 29.88 9.03C29.65 8.82 29.36 8.79 29.02 8.79ZM36.11 10.42L34.31 10.42L33.66 13.30L32.30 13.30L34.68 2.98L35.73 2.98L38.14 13.30L36.76 13.30ZM34.62 9.10L35.80 9.10L35.21 6.57ZM40.15 13.30L38.84 13.30L38.84 2.98L40.15 2.98ZM41.24 13.30L41.24 2.98L43.30 2.98C45.08 2.98 45.92 4.07 45.92 5.96L45.92 10.30C45.92 12.19 45.08 13.30 43.30 13.30ZM42.56 4.30L42.56 11.98L43.30 11.98C43.64 11.98 43.96 11.94 44.20 11.72C44.42 11.49 44.59 11.07 44.59 10.30L44.59 5.96C44.59 5.19 44.42 4.77 44.20 4.55C43.96 4.33 43.64 4.30 43.30 4.30Z"></path></g><!----><!----></svg>